<svg width="24" height="24" viewBox="0 0 24 24" fill="none" xmlns="http://www.w3.org/2000/svg">
<path fill-rule="evenodd" clip-rule="evenodd" d="M23.3873 5.39885C22.911 4.85671 22.2186 4.5449 21.4902 4.5449H8.59652C8.09973 4.5449 7.69654 4.94175 7.69654 5.43074C7.69654 5.91972 8.09973 6.31658 8.59652 6.31658H21.4902C21.7722 6.31658 21.9474 6.46776 22.0266 6.55753C22.1058 6.64848 22.233 6.841 22.1922 7.11502L21.0534 14.862C20.9634 15.4691 20.4258 15.9274 19.8018 15.9274H6.70897C6.04538 15.9274 5.5042 15.4372 5.449 14.7876L4.29343 1.23775C4.25983 0.836172 3.95384 0.506639 3.55065 0.438134L1.05351 0.0117488C0.557921 -0.0662053 0.097133 0.251517 0.0131351 0.734596C-0.0708627 1.21649 0.256729 1.67477 0.746317 1.75863L2.55827 2.0669L3.65504 14.9352C3.78944 16.5109 5.10221 17.6991 6.70897 17.6991H19.8018C21.315 17.6991 22.6182 16.5888 22.8342 15.1159L23.9741 7.36896C24.0785 6.65793 23.8637 5.94098 23.3873 5.39885ZM4.68955 21.3605C4.68955 20.3743 5.50553 19.5711 6.50751 19.5711C7.50948 19.5711 8.32426 20.3743 8.32426 21.3605C8.32426 22.3468 7.50948 23.1488 6.50751 23.1488C5.50553 23.1488 4.68955 22.3468 4.68955 21.3605ZM18.1928 21.3605C18.1928 20.3743 19.0076 19.5711 20.0095 19.5711C21.0115 19.5711 21.8275 20.3743 21.8275 21.3605C21.8275 22.3468 21.0115 23.1488 20.0095 23.1488C19.0076 23.1488 18.1928 22.3468 18.1928 21.3605ZM18.7786 9.79687C18.7786 10.2859 18.3755 10.6827 17.8787 10.6827H14.5511C14.0532 10.6827 13.6512 10.2859 13.6512 9.79687C13.6512 9.30789 14.0532 8.91103 14.5511 8.91103H17.8787C18.3755 8.91103 18.7786 9.30789 18.7786 9.79687Z" fill="#010C8E"/>
</svg>
